#!OML:ASF X:\für Bonn\!DataBase\2005_08_11_Bastian_Final\c3d\Bastian.ASF
:FULLY-SPECIFIED
:DEGREES
158
root 0.362608 16.688 23.8126 -917.11 -32.9793 -898.393
lowerback 45.1466 3.47529 -4.35128
upperback 17.9725 -4.01962 -2.30447
thorax -0.694073 -4.65261 1.23151
lowerneck -23.2823 -11.4882 -7.91697
upperneck 0.611434 -14.6951 10.018
head 5.07972 -7.04145 2.66374
rclavicle 2.54444e-014 1.11319e-014
rhumerus -20.0105 19.7573 -86.8048
rradius 46.2888
rwrist -2.44711
rhand -11.1655 6.49398
rfingers 7.12502
rthumb 14.8611 -22.953
lclavicle 2.54444e-014 1.11319e-014
lhumerus -187.086 -165.894 252.71
lradius 21.9875
lwrist 20.7153
lhand -14.5131 -9.52459
lfingers 7.12502
lthumb 11.6343 20.1324
rfemur -15.7791 -9.57885 19.1807
rtibia 50.0146
rfoot -15.6733 -11.0756
rtoes -12.7989
lfemur -7.0686 -2.23077 -19.8383
ltibia 40.6432
lfoot -9.47067 -12.1652
ltoes -11.3517
159
root 0.405623 16.6523 23.8425 -917.074 -33.3214 -898.306
lowerback 46.2721 3.55278 -4.29615
upperback 18.0065 -4.12655 -2.34559
thorax -0.922758 -4.73899 1.22751
lowerneck -23.4699 -11.5726 -7.98477
upperneck 0.328085 -14.8227 10.2975
head 5.05622 -7.10842 2.73918
rclavicle 2.54444e-014 -2.8625e-014
rhumerus -19.6842 20.1035 -86.5016
rradius 46.9408
rwrist -2.3206
rhand -11.1999 6.58027
rfingers 7.12502
rthumb 14.8279 -22.8692
lclavicle 2.54444e-014 -2.8625e-014
lhumerus -186.496 -165.303 252.059
lradius 22.1192
lwrist 20.9853
lhand -14.6112 -9.46963
lfingers 7.12502
lthumb 11.5397 20.1927
rfemur -16.31 -9.46791 19.222
rtibia 49.8406
rfoot -15.7255 -11.3786
rtoes -13.1652
lfemur -7.86736 -2.31123 -19.7572
ltibia 41.4964
lfoot -9.57151 -12.4181
ltoes -11.645
160
root 0.449134 16.6152 23.8726 -917.004 -33.6562 -898.252
lowerback 48.4022 3.7061 -4.33436
upperback 17.0888 -4.26766 -2.20809
thorax -1.22015 -4.82489 1.2628
lowerneck -23.6676 -11.6539 -8.05548
upperneck 0.0431195 -14.9435 10.5574
head 5.03175 -7.17407 2.80956
rclavicle 7.15625e-014 7.31528e-014
rhumerus -19.3664 20.4362 -86.1472
rradius 47.6341
rwrist -2.16363
rhand -11.2048 6.68234
rfingers 7.12502
rthumb 14.8232 -22.7675
lclavicle 7.15625e-014 7.31528e-014
lhumerus -185.905 -164.862 251.447
lradius 22.2466
lwrist 21.171
lhand -14.722 -9.43297
lfingers 7.12502
lthumb 11.4329 20.2353
rfemur -16.8725 -9.3807 19.2479
rtibia 49.8049
rfoot -15.7931 -11.6568
rtoes -13.308
lfemur -8.70402 -2.4245 -19.7168
ltibia 42.3872
lfoot -9.69014 -12.597
ltoes -11.8791
161
root 0.492639 16.5747 23.9023 -916.951 -33.9682 -898.153
lowerback 49.5881 3.77289 -4.25717
upperback 17.0312 -4.37748 -2.23573
thorax -1.44454 -4.90641 1.25201
lowerneck -23.8307 -11.7293 -8.14574
upperneck -0.262473 -15.0562 10.8739
head 5.00274 -7.23439 2.90282
rclavicle 1.43125e-014 2.54444e-014
rhumerus -19.0001 20.8426 -85.786
rradius 48.256
rwrist -2.0642
rhand -11.2573 6.78136
rfingers 7.12502
rthumb 14.7726 -22.6722
lclavicle 1.43125e-014 2.54444e-014
lhumerus -185.315 -164.381 250.8
lradius 22.3798
lwrist 21.4326
lhand -14.8277 -9.34
lfingers 7.12502
lthumb 11.3309 20.3339
rfemur -17.4727 -9.40263 19.3318
rtibia 49.9178
rfoot -15.8077 -11.8588
rtoes -13.5441
lfemur -9.58208 -2.54291 -19.6299
ltibia 43.3394
lfoot -9.84559 -12.7698
ltoes -12.2324
162
root 0.535652 16.5303 23.9303 -916.853 -34.289 -898.092
lowerback 50.7148 3.83117 -4.17065
upperback 16.9956 -4.49119 -2.2986
thorax -1.62606 -4.98731 1.19805
lowerneck -24.0064 -11.7937 -8.1569
upperneck -0.5591 -15.1741 11.1757
head 4.97271 -7.29786 2.97871
rclavicle 2.38542e-014 -3.49861e-014
rhumerus -18.5676 21.1635 -85.4568
rradius 48.8148
rwrist -1.96307
rhand -11.3312 6.85473
rfingers 7.12502
rthumb 14.7014 -22.604
lclavicle 2.38542e-014 -3.49861e-014
lhumerus -184.696 -163.797 250.066
lradius 22.5698
lwrist 21.7427
lhand -14.9876 -9.1606
lfingers 7.12502
lthumb 11.1767 20.5217
rfemur -18.1099 -9.48662 19.3893
rtibia 50.1813
rfoot -15.837 -12.0183
rtoes -13.7924
lfemur -10.509 -2.7045 -19.5898
ltibia 44.3473
lfoot -10.0282 -12.913
ltoes -12.5117
163
root 0.578279 16.4797 23.9581 -916.782 -34.5732 -898
lowerback 51.8461 3.90389 -4.0924
upperback 16.9645 -4.5955 -2.32069
thorax -1.7859 -5.07035 1.18624
lowerneck -24.2037 -11.861 -8.21435
upperneck -0.872814 -15.2841 11.4858
head 4.94383 -7.35935 3.06426
rclavicle 6.36111e-015 -1.59028e-014
rhumerus -18.0547 21.5379 -85.0446
rradius 49.3393
rwrist -1.92733
rhand -11.388 6.94159
rfingers 7.12502
rthumb 14.6467 -22.5211
lclavicle 6.36111e-015 -1.59028e-014
lhumerus -184.056 -163.358 249.381
lradius 22.7145
lwrist 22.0798
lhand -15.1635 -9.02767
lfingers 7.12502
lthumb 11.007 20.6637
rfemur -18.7544 -9.67006 19.499
rtibia 50.5814
rfoot -15.8105 -12.0772
rtoes -14.3174
lfemur -11.4616 -2.86032 -19.513
ltibia 45.4281
lfoot -10.2679 -13.0223
ltoes -12.8171
164
root 0.619526 16.4268 23.9846 -916.685 -34.8505 -897.91
lowerback 52.9135 3.94681 -3.96394
upperback 16.9372 -4.70055 -2.4008
thorax -1.93072 -5.14233 1.08942
lowerneck -24.3057 -11.9137 -8.21106
upperneck -1.22564 -15.3954 11.8362
head 4.89053 -7.42314 3.15792
rclavicle 8.11041e-014 1.59028e-014
rhumerus -17.4885 21.8552 -84.6713
rradius 49.813
rwrist -1.90676
rhand -11.4257 6.96437
rfingers 7.12502
rthumb 14.6104 -22.501
lclavicle 8.11041e-014 1.59028e-014
lhumerus -183.47 -162.892 248.622
lradius 22.9317
lwrist 22.4492
lhand -15.3586 -8.85928
lfingers 7.12502
lthumb 10.8189 20.8421
rfemur -19.4536 -9.9038 19.6229
rtibia 51.1035
rfoot -15.8128 -12.0853
rtoes -14.8937
lfemur -12.4523 -3.06132 -19.4465
ltibia 46.5518
lfoot -10.5115 -13.0976
ltoes -13.0278
165
root 0.66013 16.3704 24.0095 -916.596 -35.0976 -897.793
lowerback 53.9278 4.01304 -3.87759
upperback 16.9267 -4.79301 -2.42576
thorax -2.0333 -5.21787 1.06253
lowerneck -24.4112 -11.9536 -8.24652
upperneck -1.6237 -15.4797 12.1879
head 4.82423 -7.47858 3.26253
rclavicle 3.33958e-014 3.33958e-014
rhumerus -16.8018 22.2234 -84.1914
rradius 50.1815
rwrist -1.8558
rhand -11.4501 6.9778
rfingers 7.12502
rthumb 14.5868 -22.4893
lclavicle 3.33958e-014 3.33958e-014
lhumerus -182.932 -162.49 247.908
lradius 23.1787
lwrist 22.8508
lhand -15.5759 -8.67242
lfingers 7.12502
lthumb 10.6092 21.0398
rfemur -20.1989 -10.1312 19.78
rtibia 51.7188
rfoot -15.8379 -12.0537
rtoes -15.3129
lfemur -13.4849 -3.25698 -19.3453
ltibia 47.7308
lfoot -10.7966 -13.1558
ltoes -13.3034
166
root 0.700042 16.3116 24.0329 -916.495 -35.327 -897.712
lowerback 54.9009 4.09646 -3.79561
upperback 16.9418 -4.87281 -2.4768
thorax -2.09619 -5.28868 1.0015
lowerneck -24.497 -11.9758 -8.20348
upperneck -2.04749 -15.5601 12.5111
head 4.73907 -7.53751 3.34942
rclavicle 1.11319e-014 5.24792e-014
rhumerus -16.0272 22.5373 -83.7263
rradius 50.4982
rwrist -1.84662
rhand -11.4521 6.93004
rfingers 7.12502
rthumb 14.5849 -22.5372
lclavicle 1.11319e-014 5.24792e-014
lhumerus -182.362 -162.154 247.157
lradius 23.3908
lwrist 23.1682
lhand -15.8474 -8.45449
lfingers 7.12502
lthumb 10.3474 21.2709
rfemur -20.9728 -10.3762 19.9023
rtibia 52.4194
rfoot -15.891 -11.934
rtoes -15.4192
lfemur -14.493 -3.46912 -19.2778
ltibia 48.9319
lfoot -11.0893 -13.1527
ltoes -13.3869
167
root 0.738918 16.2485 24.0546 -916.403 -35.5577 -897.58
lowerback 55.8243 4.14858 -3.68489
upperback 16.9435 -4.95524 -2.52217
thorax -2.16266 -5.35359 0.935373
lowerneck -24.5345 -11.9949 -8.17598
upperneck -2.47473 -15.6331 12.8612
head 4.65035 -7.59315 3.44961
rclavicle -2.70347e-014 -9.06458e-014
rhumerus -15.2199 22.8744 -83.2226
rradius 50.7346
rwrist -1.86419
rhand -11.4862 6.89986
rfingers 7.12502
rthumb 14.5521 -22.5697
lclavicle -2.70347e-014 -9.06458e-014
lhumerus -181.873 -161.864 246.422
lradius 23.6328
lwrist 23.551
lhand -16.0834 -8.30618
lfingers 7.12502
lthumb 10.1197 21.4305
rfemur -21.7941 -10.6618 20.0833
rtibia 53.1923
rfoot -15.9214 -11.8188
rtoes -15.7316
lfemur -15.5562 -3.70749 -19.16
ltibia 50.1725
lfoot -11.3979 -13.1768
ltoes -13.5025
168
root 0.776703 16.1826 24.0755 -916.286 -35.7512 -897.494
lowerback 56.6788 4.2424 -3.60991
upperback 16.9915 -5.01533 -2.56763
thorax -2.16305 -5.41678 0.870702
lowerneck -24.5947 -11.9982 -8.09296
upperneck -2.95164 -15.699 13.1823
head 4.54188 -7.65333 3.53476
rclavicle 3.97569e-014 -9.54166e-015
rhumerus -14.2808 23.1792 -82.6625
rradius 50.8758
rwrist -1.86661
rhand -11.5097 6.87144
rfingers 7.12502
rthumb 14.5294 -22.5998
lclavicle 3.97569e-014 -9.54166e-015
lhumerus -181.317 -161.616 245.673
lradius 23.8225
lwrist 23.9171
lhand -16.3688 -8.16471
lfingers 7.12502
lthumb 9.84438 21.5852
rfemur -22.6446 -10.942 20.2388
rtibia 54.0349
rfoot -15.9722 -11.6899
rtoes -16.2228
lfemur -16.6089 -3.91704 -19.0762
ltibia 51.4342
lfoot -11.7756 -13.159
ltoes -13.8707
169
root 0.813891 16.1131 24.0942 -916.191 -35.923 -897.346
lowerback 57.5003 4.31286 -3.50159
upperback 17.0211 -5.06876 -2.60632
thorax -2.17692 -5.47 0.797397
lowerneck -24.6189 -12.0118 -8.02668
upperneck -3.41943 -15.772 13.4897
head 4.43236 -7.71902 3.61825
rclavicle -5.88403e-014 -7.63333e-014
rhumerus -13.3248 23.4358 -82.0995
rradius 50.8981
rwrist -1.82729
rhand -11.5739 6.89164
rfingers 7.12502
rthumb 14.4676 -22.584
lclavicle -5.88403e-014 -7.63333e-014
lhumerus -180.81 -161.509 244.969
lradius 23.9814
lwrist 24.19
lhand -16.6271 -8.01124
lfingers 7.12502
lthumb 9.59512 21.7503
rfemur -23.5317 -11.233 20.4628
rtibia 54.9449
rfoot -16.0459 -11.5682
rtoes -16.642
lfemur -17.6942 -4.15161 -18.9278
ltibia 52.7327
lfoot -12.1098 -13.1178
ltoes -13.8006
170
root 0.850976 16.0401 24.1131 -916.084 -36.0678 -897.259
lowerback 58.3052 4.41177 -3.43151
upperback 17.0727 -5.12223 -2.66104
thorax -2.15756 -5.5288 0.720179
lowerneck -24.6703 -12.0106 -7.93053
upperneck -3.8996 -15.8341 13.8059
head 4.32114 -7.78208 3.70099
rclavicle -1.74931e-014 3.18055e-014
rhumerus -12.2747 23.7261 -81.4713
rradius 50.8844
rwrist -1.84045
rhand -11.6209 6.92053
rfingers 7.12502
rthumb 14.4223 -22.5584
lclavicle -1.74931e-014 3.18055e-014
lhumerus -180.276 -161.462 244.247
lradius 24.1073
lwrist 24.4699
lhand -16.8803 -7.87743
lfingers 7.12502
lthumb 9.35083 21.8952
rfemur -24.4202 -11.4924 20.6366
rtibia 55.9064
rfoot -16.0995 -11.4689
rtoes -17.1225
lfemur -18.759 -4.36548 -18.8274
ltibia 54.0577
lfoot -12.4987 -13.0665
ltoes -14.0127
171
root 0.888705 15.9625 24.1312 -915.978 -36.2023 -897.107
lowerback 59.0494 4.50155 -3.32903
upperback 17.1193 -5.14769 -2.69437
thorax -2.13605 -5.56921 0.64118
lowerneck -24.6569 -12.0215 -7.86447
upperneck -4.41827 -15.9033 14.1376
head 4.19421 -7.8534 3.79532
rclavicle 7.4743e-014 3.49861e-014
rhumerus -11.2508 23.9508 -80.8154
rradius 50.8799
rwrist -1.90116
rhand -11.6748 6.96983
rfingers 7.12502
rthumb 14.3703 -22.5128
lclavicle 7.4743e-014 3.49861e-014
lhumerus -179.758 -161.388 243.556
lradius 24.2256
lwrist 24.7908
lhand -17.1732 -7.75796
lfingers 7.12502
lthumb 9.06825 22.0271
rfemur -25.3968 -11.7733 20.8969
rtibia 56.9322
rfoot -16.1399 -11.4325
rtoes -17.8727
lfemur -19.8977 -4.57401 -18.6514
ltibia 55.4157
lfoot -12.8741 -13.0233
ltoes -13.9533
